<?xml version="1.0" standalone="no"?>
<!DOCTYPE svg PUBLIC "-//W3C//DTD SVG 20010904//EN"
 "http://www.w3.org/TR/2001/REC-SVG-20010904/DTD/svg10.dtd">
<svg version="1.0" xmlns="http://www.w3.org/2000/svg"
 width="16.000000pt" height="16.000000pt" viewBox="0 0 16.000000 16.000000"
 preserveAspectRatio="xMidYMid meet">
<metadata>
Created by potrace 1.11, written by Peter Selinger 2001-2013
</metadata>
<g transform="translate(0.000000,16.000000) scale(0.003125,-0.003125)"
fill="#000000" stroke="none">
<path d="M200 5111 c-72 -22 -136 -75 -172 -143 l-23 -43 0 -2365 0 -2365 22
-40 c35 -65 64 -93 128 -125 l60 -30 2355 3 2355 2 40 21 c54 29 100 75 127
126 l23 43 0 2365 0 2365 -21 40 c-32 59 -79 104 -137 131 l-52 24 -2340 -1
c-1287 0 -2351 -4 -2365 -8z"/>
</g>
</svg>
